REM DIRINDEX 1\2\4,1\2\5,1\2\6,1\3\7,1\3\8
REM DIRNAME cjc128,folder01,folder02,folder03,folder04,folder05,folder06,folder07
TITLE ""
FILE "014_Lesson 12_Output_Stage.mp3" MP3
  TRACK 01 AUDIO
    TITLE "0:"
    INDEX 01 00:00:00
  TRACK 02 AUDIO
    TITLE "8:cjc128_2947"
    INDEX 01 00:00:11
  TRACK 03 AUDIO
    TITLE "0:"
    INDEX 01 00:02:71
  TRACK 04 AUDIO
    TITLE "8:cjc128_2948"
    INDEX 01 00:04:11
  TRACK 05 AUDIO
    TITLE "0:"
    INDEX 01 00:06:14
  TRACK 06 AUDIO
    TITLE "7:cjc128_2949"
    INDEX 01 00:07:17
  TRACK 07 AUDIO
    TITLE "0:"
    INDEX 01 00:09:47
  TRACK 08 AUDIO
    TITLE "8:cjc128_2950"
    INDEX 01 00:12:36
  TRACK 09 AUDIO
    TITLE "0:"
    INDEX 01 00:14:29
  TRACK 10 AUDIO
    TITLE "7:cjc128_2951"
    INDEX 01 00:15:11
  TRACK 11 AUDIO
    TITLE "0:"
    INDEX 01 00:17:21
  TRACK 12 AUDIO
    TITLE "8:cjc128_2952"
    INDEX 01 00:20:10
  TRACK 13 AUDIO
    TITLE "0:"
    INDEX 01 00:21:68
  TRACK 14 AUDIO
    TITLE "7:cjc128_2953"
    INDEX 01 00:22:50
  TRACK 15 AUDIO
    TITLE "0:"
    INDEX 01 00:26:24
  TRACK 16 AUDIO
    TITLE "8:cjc128_2954"
    INDEX 01 00:30:22
  TRACK 17 AUDIO
    TITLE "0:"
    INDEX 01 00:32:21
  TRACK 18 AUDIO
    TITLE "7:cjc128_2955"
    INDEX 01 00:32:70
  TRACK 19 AUDIO
    TITLE "0:"
    INDEX 01 00:35:68
  TRACK 20 AUDIO
    TITLE "8:cjc128_2956"
    INDEX 01 00:39:37
  TRACK 21 AUDIO
    TITLE "0:"
    INDEX 01 00:41:12
  TRACK 22 AUDIO
    TITLE "7:cjc128_2957"
    INDEX 01 00:41:69
  TRACK 23 AUDIO
    TITLE "0:"
    INDEX 01 00:45:47
  TRACK 24 AUDIO
    TITLE "8:cjc128_2958"
    INDEX 01 00:49:61
  TRACK 25 AUDIO
    TITLE "0:"
    INDEX 01 00:51:50
  TRACK 26 AUDIO
    TITLE "7:cjc128_2959"
    INDEX 01 00:52:32
  TRACK 27 AUDIO
    TITLE "0:"
    INDEX 01 00:54:54
  TRACK 28 AUDIO
    TITLE "8:cjc128_2960"
    INDEX 01 00:57:43
  TRACK 29 AUDIO
    TITLE "0:"
    INDEX 01 00:59:38
  TRACK 30 AUDIO
    TITLE "7:cjc128_2961"
    INDEX 01 01:00:19
  TRACK 31 AUDIO
    TITLE "0:"
    INDEX 01 01:03:18
  TRACK 32 AUDIO
    TITLE "8:cjc128_2962"
    INDEX 01 01:06:55
  TRACK 33 AUDIO
    TITLE "0:"
    INDEX 01 01:08:50
  TRACK 34 AUDIO
    TITLE "7:cjc128_2963"
    INDEX 01 01:09:36
  TRACK 35 AUDIO
    TITLE "0:"
    INDEX 01 01:11:62
  TRACK 36 AUDIO
    TITLE "8:cjc128_2964"
    INDEX 01 01:14:70
  TRACK 37 AUDIO
    TITLE "0:"
    INDEX 01 01:16:65
  TRACK 38 AUDIO
    TITLE "7:cjc128_2965"
    INDEX 01 01:17:49
  TRACK 39 AUDIO
    TITLE "0:"
    INDEX 01 01:20:71
  TRACK 40 AUDIO
    TITLE "8:cjc128_2966"
    INDEX 01 01:24:59
  TRACK 41 AUDIO
    TITLE "0:"
    INDEX 01 01:26:56
  TRACK 42 AUDIO
    TITLE "7:cjc128_2967"
    INDEX 01 01:27:28
  TRACK 43 AUDIO
    TITLE "0:"
    INDEX 01 01:29:68
  TRACK 44 AUDIO
    TITLE "8:cjc128_2968"
    INDEX 01 01:32:68
  TRACK 45 AUDIO
    TITLE "0:"
    INDEX 01 01:34:63
  TRACK 46 AUDIO
    TITLE "7:cjc128_2969"
    INDEX 01 01:35:45
  TRACK 47 AUDIO
    TITLE "0:"
    INDEX 01 01:39:02
  TRACK 48 AUDIO
    TITLE "8:cjc128_2970"
    INDEX 01 01:43:03
  TRACK 49 AUDIO
    TITLE "0:"
    INDEX 01 01:44:72
  TRACK 50 AUDIO
    TITLE "7:cjc128_2971"
    INDEX 01 01:45:53
  TRACK 51 AUDIO
    TITLE "0:"
    INDEX 01 01:48:44
  TRACK 52 AUDIO
    TITLE "8:cjc128_2972"
    INDEX 01 01:52:12
  TRACK 53 AUDIO
    TITLE "0:"
    INDEX 01 01:53:72
  TRACK 54 AUDIO
    TITLE "7:cjc128_2973"
    INDEX 01 01:54:52
  TRACK 55 AUDIO
    TITLE "0:"
    INDEX 01 01:58:21
  TRACK 56 AUDIO
    TITLE "8:cjc128_2974"
    INDEX 01 02:02:13
  TRACK 57 AUDIO
    TITLE "0:"
    INDEX 01 02:04:10
  TRACK 58 AUDIO
    TITLE "7:cjc128_2975"
    INDEX 01 02:04:60
  TRACK 59 AUDIO
    TITLE "0:"
    INDEX 01 02:09:09
  TRACK 60 AUDIO
    TITLE "8:cjc128_2976"
    INDEX 01 02:13:59
  TRACK 61 AUDIO
    TITLE "0:"
    INDEX 01 02:15:35
  TRACK 62 AUDIO
    TITLE "7:cjc128_2977"
    INDEX 01 02:16:15
  TRACK 63 AUDIO
    TITLE "0:"
    INDEX 01 02:18:39
  TRACK 64 AUDIO
    TITLE "8:cjc128_2978"
    INDEX 01 02:21:24
  TRACK 65 AUDIO
    TITLE "0:"
    INDEX 01 02:23:25
  TRACK 66 AUDIO
    TITLE "7:cjc128_2979"
    INDEX 01 02:24:02
  TRACK 67 AUDIO
    TITLE "0:"
    INDEX 01 02:26:60
  TRACK 68 AUDIO
    TITLE "8:cjc128_2980"
    INDEX 01 02:29:74
  TRACK 69 AUDIO
    TITLE "0:"
    INDEX 01 02:32:02
  TRACK 70 AUDIO
    TITLE "7:cjc128_2981"
    INDEX 01 02:32:59
  TRACK 71 AUDIO
    TITLE "0:"
    INDEX 01 02:35:02
